<svg version="1.0" xmlns="http://www.w3.org/2000/svg" width="1333.333" height="1333.333" viewBox="0 0 1000 1000"><path d="M623.8 191.7c-2.6 2.8-5.6 8.9-9.7 19.8-1.3 3.3-2.6 6.9-3.1 8-.9 2.4-4.5 14.5-5.8 20-.6 2.2-1.5 5.9-2.1 8.1-.6 2.3-1.1 5.5-1.1 7.1 0 3-2.2 5.9-3.7 5-1.3-.8-47.3-2.2-71.8-2.2-41.6 0-92.3 2.7-121.5 6.5-4.1.6-9.1 1-11 1-3.4 0-3.6-.2-4.9-4.8-2.5-8.5-10.9-26.1-16.5-34.6-8.7-13-19.2-21.7-26.4-21.6-11.4.2-15.6 21.2-16.7 84.5-.2 16.5-.8 38.4-1.1 48.6l-.7 18.6-6.1 4.9c-10.4 8.4-29.7 28.4-39.6 41.2-25.2 32.5-41.3 65.8-50.9 105.3-3.3 13.6-3.8 18.7-1.8 19.4.6.2 11.3.9 23.7 1.5 12.4.6 25.7 1.4 29.5 1.7l7 .6 8.5 11.5c25.8 34.9 58.3 65.4 95.5 89.4 6.6 4.3 13.1 8.4 14.5 9.1 1.4.8 5.4 3 9 5.1 8.8 4.9 28.8 14.5 36.8 17.7 1.2.5 3.3 1.3 4.7 1.9 1.4.5 3.5 1.4 4.8 1.9 1.2.5 3.8 1.4 5.7 2.1 1.9.7 4.4 1.6 5.5 2 1.1.5 4.6 1.7 7.7 2.8 5.2 1.8 6.1 1.9 9.8.6 7.8-2.7 19-9 34.8-19.6 11.7-7.8 46.9-34 51.7-38.5 1.7-1.5 5-4.6 7.5-6.7 21.9-19 66.2-63.4 79.6-79.6 1.6-1.9 3.5-4.1 4.2-4.9 2.1-2.2 9.5-12.3 11.1-15.1 4.3-7.7 8.1-15.7 8.1-17.1 0-.9.6-2.1 1.3-2.7 3-2.4 38.3-12.3 56.2-15.7 5-1 9.3-2.1 9.8-2.4 1.7-1.6-15.3-35.8-25.5-51.3-18-27.3-41.2-51.9-65.4-69.6l-9.1-6.7-1.2-6.7c-.6-3.7-1.1-8.8-1.1-11.4 0-2.7-.5-8.6-1.1-13.3-.5-4.8-1.4-12.2-1.9-16.6-3-26.4-5.1-42.2-8-60.5-.5-3-1.4-8.7-2-12.5-3.2-20.9-5-29.9-6.5-32.1-2.2-3.4-7.3-3.3-10.7.3zm34.3 281.7c.2.2.2 6.7-.1 14.4l-.5 14.1-10 9.3c-22.7 21.1-44.7 43.8-72.7 75.3-27.7 31.1-52.3 54.5-77.6 73.7l-9.3 7.1-8.2-8.1c-7.7-7.6-13.1-11.6-44.4-33.7-13.3-9.4-48.4-35.4-49.3-36.5-.3-.4-2.6-2.3-5.3-4.3-9.4-7.2-17.6-14.6-36.4-33.2L325 532.6v-38.2l11.8-1.3c6.4-.8 14.4-1.7 17.7-2.1 5.6-.8 12.7-1.6 34.5-4.1 24.4-2.7 63.6-6.2 89-8 31.3-2.1 46.7-2.9 76-3.9 16.8-.6 31-1.2 31.5-1.5 1.4-.5 72.1-.6 72.6-.1z"/><path d="M495.2 489.6c-11.8 3.1-17.2 8-17.2 15.5 0 4.3 6.8 10.8 16.4 15.6 6.8 3.4 7 3.5 10.3 1.9 3.7-1.8 13.3-10.3 13.3-11.8 0-.6.9-2.1 2-3.5 3-3.8 2.8-11.6-.4-14.8-4.4-4.4-14.3-5.7-24.4-2.9zM538.7 535.7c-4.5 6.6-11.6 14.2-14.9 15.9-3.2 1.7-11.1 1.8-14.1.3-3.9-2-7.8-6.3-9.8-10.7-1.1-2.3-2.4-4.2-2.9-4.2-.6 0-2.6 2.3-4.6 5-6.4 8.9-17.9 14.8-26.9 13.8-7.5-.9-18.9-7-26.4-14.3-4.1-3.9-7.6-6.5-8.9-6.5-2.8 0-2.9 2.7-.3 7.2 1.1 1.8 2.9 7.2 4.1 12 2.7 11.6 7.2 24.3 12.3 34.8 11.7 24.3 23.5 34 41.7 34 6.7 0 8.2-.4 12.1-2.9 8.9-5.6 12.6-16.4 10.8-31.8-1.5-13.1-4-22.6-8-30.6-1.2-2.3-.4-2.2 3.3.4 4.3 3.1 14.7 3.1 20.2 0 4.2-2.4 15.6-12.8 15.6-14.3 0-.5.9-1.8 1.9-2.9 2.5-2.7 3.5-6.7 2-8.5-2-2.4-3.8-1.6-7.2 3.3zM755.5 527.3c-40.3 25.7-84.1 62.4-96.2 80.3-7.1 10.6-6.7 5.3-7.1 102.6-.2 71.2 0 87.8 1 87.8.7 0 5.8-3.4 11.2-7.4 36-27.1 63.3-59.7 82.3-98.6 4.2-8.5 8-16.5 8.5-17.8.4-1.2 1.2-3.2 1.7-4.5 2.9-7.1 4.4-11.6 8-23.2 3.5-11.1 7-27.9 9.3-44.5 1.5-10.8 2.1-50.5.9-56.5-.5-2.8-1.5-8.8-2.1-13.5-1.5-11.7-1.9-13-3.3-13-.6 0-7 3.7-14.2 8.3zM224 586.4c0 4.2.4 9.5.9 11.8.6 2.4 1.5 7.9 2.1 12.3 1.2 8.4 3.3 19.4 5 25.7.6 2.1 1.4 5.3 1.9 7 6.1 23.3 21 56 36 78.8 17.1 26.1 46 55.4 73.1 74.2 9 6.2 24 15.1 24.5 14.6.3-.3-.4-4.9-1.5-10.4-4.3-21.1-7-35.1-15-76.4-2.8-14.6-6-30.8-7-36-1-5.2-4.4-22.6-7.5-38.5-3.1-16-5.8-30.3-6.1-31.8-.6-3-4.3-5.2-15.4-9-2.5-.9-9.7-3.5-16-5.8-21.7-7.9-56.5-19.5-64-21.2-4.1-1-8.3-2-9.2-2.3-1.6-.5-1.8.3-1.8 7z"/></svg>