<svg width="21" height="20" viewBox="0 0 21 20" fill="none" xmlns="http://www.w3.org/2000/svg">
<g clip-path="url(#clip0)">
<path d="M18.5186 9.4H10.0186V10.6H18.5186L16.4186 12.7L17.3186 13.6L20.4186 10.5C20.5159 10.3702 20.5686 10.2123 20.5686 10.05C20.5686 9.88772 20.5159 9.72982 20.4186 9.6L17.3186 6.5L16.4186 7.4L18.5186 9.4Z" fill="#68B738"/>
<path d="M8.71897 19.4V13.2C8.70742 13.0447 8.6405 12.8987 8.53038 12.7886C8.42026 12.6785 8.27427 12.6116 8.11897 12.6H3.71897C3.72412 12.9167 3.8522 13.2189 4.07614 13.4428C4.30008 13.6668 4.60232 13.7949 4.91897 13.8H7.41897V18.8H3.71897C3.48221 18.8149 3.24486 18.7825 3.02072 18.7048C2.79657 18.6271 2.59011 18.5057 2.41332 18.3475C2.23653 18.1893 2.09295 17.9976 1.99091 17.7834C1.88888 17.5693 1.83043 17.337 1.81897 17.1V3.10001C1.81077 2.6373 1.98412 2.18977 2.30188 1.85331C2.61964 1.51686 3.05654 1.31824 3.51897 1.30001H7.41897V6.30001H5.01897C4.70232 6.30516 4.40008 6.43324 4.17614 6.65718C3.9522 6.88112 3.82412 7.18336 3.81897 7.50001H8.21897C8.37427 7.48846 8.52026 7.42154 8.63038 7.31142C8.7405 7.2013 8.80742 7.05531 8.81897 6.90001V0.600012C8.77128 0.443872 8.68012 0.304534 8.55617 0.198285C8.43221 0.0920352 8.28057 0.0232649 8.11897 1.23734e-05H3.71897C3.32495 -0.0133408 2.93216 0.0511002 2.56307 0.189651C2.19397 0.328202 1.8558 0.538145 1.56789 0.807477C1.27998 1.07681 1.04799 1.40025 0.885165 1.7593C0.722342 2.11835 0.631887 2.50598 0.618972 2.90001V16.8C0.589993 17.1977 0.643608 17.597 0.776445 17.9729C0.909281 18.3489 1.11847 18.6932 1.39084 18.9844C1.66322 19.2756 1.9929 19.5072 2.35914 19.6648C2.72539 19.8224 3.12028 19.9024 3.51897 19.9H8.11897C8.19246 19.915 8.26838 19.9133 8.34112 19.895C8.41386 19.8767 8.48154 19.8423 8.53917 19.7942C8.59679 19.7462 8.64287 19.6859 8.67399 19.6176C8.70512 19.5494 8.72049 19.475 8.71897 19.4Z" fill="#68B738"/>
</g>
<defs>
<clipPath id="clip0">
<rect width="20" height="20" fill="white" transform="translate(0.618652)"/>
</clipPath>
</defs>
</svg>
