<?xml version="1.0" standalone="no"?>
<!DOCTYPE svg PUBLIC "-//W3C//DTD SVG 20010904//EN"
 "http://www.w3.org/TR/2001/REC-SVG-20010904/DTD/svg10.dtd">
<svg version="1.0" xmlns="http://www.w3.org/2000/svg"
 width="1000.000000pt" height="1000.000000pt" viewBox="0 0 1000.000000 1000.000000"
 preserveAspectRatio="xMidYMid meet">
<metadata>
Created by potrace 1.14, written by Peter Selinger 2001-2017
</metadata>
<g transform="translate(0.000000,1000.000000) scale(0.100000,-0.100000)"
fill="#000000" stroke="none">
<path d="M6238 8083 c-26 -28 -56 -89 -97 -198 -13 -33 -26 -69 -31 -80 -9
-24 -45 -145 -58 -200 -6 -22 -15 -59 -21 -81 -6 -23 -11 -55 -11 -71 0 -30
-22 -59 -37 -50 -13 8 -473 22 -718 22 -416 0 -923 -27 -1215 -65 -41 -6 -91
-10 -110 -10 -34 0 -36 2 -49 48 -25 85 -109 261 -165 346 -87 130 -192 217
-264 216 -114 -2 -156 -212 -167 -845 -2 -165 -8 -384 -11 -486 l-7 -186 -61
-49 c-104 -84 -297 -284 -396 -412 -252 -325 -413 -658 -509 -1053 -33 -136
-38 -187 -18 -194 6 -2 113 -9 237 -15 124 -6 257 -14 295 -17 l70 -6 85 -115
c258 -349 583 -654 955 -894 66 -43 131 -84 145 -91 14 -8 54 -30 90 -51 88
-49 288 -145 368 -177 12 -5 33 -13 47 -19 14 -5 35 -14 48 -19 12 -5 38 -14
57 -21 19 -7 44 -16 55 -20 11 -5 46 -17 77 -28 52 -18 61 -19 98 -6 78 27
190 90 348 196 117 78 469 340 517 385 17 15 50 46 75 67 219 190 662 634 796
796 16 19 35 41 42 49 21 22 95 123 111 151 43 77 81 157 81 171 0 9 6 21 13
27 30 24 383 123 562 157 50 10 93 21 98 24 17 16 -153 358 -255 513 -180 273
-412 519 -654 696 l-91 67 -12 67 c-6 37 -11 88 -11 114 0 27 -5 86 -11 133
-5 48 -14 122 -19 166 -30 264 -51 422 -80 605 -5 30 -14 87 -20 125 -32 209
-50 299 -65 321 -22 34 -73 33 -107 -3z m343 -2817 c2 -2 2 -67 -1 -144 l-5
-141 -100 -93 c-227 -211 -447 -438 -727 -753 -277 -311 -523 -545 -776 -737
l-93 -71 -82 81 c-77 76 -131 116 -444 337 -133 94 -484 354 -493 365 -3 4
-26 23 -53 43 -94 72 -176 146 -364 332 l-193 189 0 191 0 191 118 13 c64 8
144 17 177 21 56 8 127 16 345 41 244 27 636 62 890 80 313 21 467 29 760 39
168 6 310 12 315 15 14 5 721 6 726 1z"/>
<path d="M4952 5104 c-118 -31 -172 -80 -172 -155 0 -43 68 -108 164 -156 68
-34 70 -35 103 -19 37 18 133 103 133 118 0 6 9 21 20 35 30 38 28 116 -4 148
-44 44 -143 57 -244 29z"/>
<path d="M5387 4643 c-45 -66 -116 -142 -149 -159 -32 -17 -111 -18 -141 -3
-39 20 -78 63 -98 107 -11 23 -24 42 -29 42 -6 0 -26 -23 -46 -50 -64 -89
-179 -148 -269 -138 -75 9 -189 70 -264 143 -41 39 -76 65 -89 65 -28 0 -29
-27 -3 -72 11 -18 29 -72 41 -120 27 -116 72 -243 123 -348 117 -243 235 -340
417 -340 67 0 82 4 121 29 89 56 126 164 108 318 -15 131 -40 226 -80 306 -12
23 -4 22 33 -4 43 -31 147 -31 202 0 42 24 156 128 156 143 0 5 9 18 19 29 25
27 35 67 20 85 -20 24 -38 16 -72 -33z"/>
<path d="M7555 4727 c-403 -257 -841 -624 -962 -803 -71 -106 -67 -53 -71
-1026 -2 -712 0 -878 10 -878 7 0 58 34 112 74 360 271 633 597 823 986 42 85
80 165 85 178 4 12 12 32 17 45 29 71 44 116 80 232 35 111 70 279 93 445 15
108 21 505 9 565 -5 28 -15 88 -21 135 -15 117 -19 130 -33 130 -6 0 -70 -37
-142 -83z"/>
<path d="M2240 4136 c0 -42 4 -95 9 -118 6 -24 15 -79 21 -123 12 -84 33 -194
50 -257 6 -21 14 -53 19 -70 61 -233 210 -560 360 -788 171 -261 460 -554 731
-742 90 -62 240 -151 245 -146 3 3 -4 49 -15 104 -43 211 -70 351 -150 764
-28 146 -60 308 -70 360 -10 52 -44 226 -75 385 -31 160 -58 303 -61 318 -6
30 -43 52 -154 90 -25 9 -97 35 -160 58 -217 79 -565 195 -640 212 -41 10 -83
20 -92 23 -16 5 -18 -3 -18 -70z"/>
</g>
</svg>
